<?xml version="1.0" standalone="no"?><!DOCTYPE svg PUBLIC "-//W3C//DTD SVG 1.1//EN" "http://www.w3.org/Graphics/SVG/1.1/DTD/svg11.dtd"><svg class="icon" width="200px" height="200.00px" viewBox="0 0 1024 1024" version="1.1" xmlns="http://www.w3.org/2000/svg"><path fill="#333333" d="M512 85.504c-235.008 0-426.496 191.488-426.496 426.496s191.488 426.496 426.496 426.496 426.496-191.488 426.496-426.496-191.488-426.496-426.496-426.496z m0 771.072c-189.952 0-344.576-154.624-344.576-344.576S322.048 167.424 512 167.424s344.576 154.624 344.576 344.576-154.624 344.576-344.576 344.576zM512 512m-162.304 0a162.304 162.304 0 1 0 324.608 0 162.304 162.304 0 1 0-324.608 0Z" /></svg>